<svg width="1200" height="1200" viewBox="0 0 1200 1200" fill="none" xmlns="http://www.w3.org/2000/svg">
<g clip-path="url(#clip0_1_405)">
<rect width="1200" height="1200" fill="#D5D6AC"/>
<path fill-rule="evenodd" clip-rule="evenodd" d="M46.4088 71.6666C46.4088 52.3367 62.0788 36.6667 81.4088 36.6667H555.055C560.394 36.6667 565.454 37.8621 569.982 40H999.254C1018.58 40 1034.25 55.67 1034.25 75V398.333C1034.25 417.663 1018.58 433.333 999.254 433.333H596.685V888.333C596.685 907.663 581.015 923.333 561.685 923.333H320.083C300.753 923.333 285.083 907.663 285.083 888.333V650H81.4088C62.0789 650 46.4088 634.33 46.4088 615V71.6666Z" fill="#89DA8C"/>
<mask id="path-3-outside-1_1_405" maskUnits="userSpaceOnUse" x="626.149" y="593" width="508" height="539" fill="black">
<rect fill="white" x="626.149" y="593" width="508" height="539"/>
<path fill-rule="evenodd" clip-rule="evenodd" d="M897.453 600C886.96 600 878.453 608.507 878.453 619V781.3H652.149C641.656 781.3 633.149 789.806 633.149 800.3V1105.63C633.149 1116.13 641.656 1124.63 652.149 1124.63H1001.99C1012.49 1124.63 1020.99 1116.13 1020.99 1105.63V943.333H1108.07C1118.57 943.333 1127.07 934.827 1127.07 924.333V619C1127.07 608.507 1118.57 600 1108.07 600H897.453Z"/>
</mask>
<path fill-rule="evenodd" clip-rule="evenodd" d="M897.453 600C886.96 600 878.453 608.507 878.453 619V781.3H652.149C641.656 781.3 633.149 789.806 633.149 800.3V1105.63C633.149 1116.13 641.656 1124.63 652.149 1124.63H1001.99C1012.49 1124.63 1020.99 1116.13 1020.99 1105.63V943.333H1108.07C1118.57 943.333 1127.07 934.827 1127.07 924.333V619C1127.07 608.507 1118.57 600 1108.07 600H897.453Z" fill="#8CCEF3"/>
<path d="M878.453 781.3V788.3H885.453V781.3H878.453ZM1020.99 943.333V936.333H1013.99V943.333H1020.99ZM885.453 619C885.453 612.373 890.826 607 897.453 607V593C883.094 593 871.453 604.641 871.453 619H885.453ZM885.453 781.3V619H871.453V781.3H885.453ZM652.149 788.3H878.453V774.3H652.149V788.3ZM640.149 800.3C640.149 793.672 645.522 788.3 652.149 788.3V774.3C637.79 774.3 626.149 785.94 626.149 800.3H640.149ZM640.149 1105.63V800.3H626.149V1105.63H640.149ZM652.149 1117.63C645.522 1117.63 640.149 1112.26 640.149 1105.63H626.149C626.149 1119.99 637.79 1131.63 652.149 1131.63V1117.63ZM1001.99 1117.63H652.149V1131.63H1001.99V1117.63ZM1013.99 1105.63C1013.99 1112.26 1008.62 1117.63 1001.99 1117.63V1131.63C1016.35 1131.63 1027.99 1119.99 1027.99 1105.63H1013.99ZM1013.99 943.333V1105.63H1027.99V943.333H1013.99ZM1108.07 936.333H1020.99V950.333H1108.07V936.333ZM1120.07 924.333C1120.07 930.961 1114.7 936.333 1108.07 936.333V950.333C1122.43 950.333 1134.07 938.693 1134.07 924.333H1120.07ZM1120.07 619V924.333H1134.07V619H1120.07ZM1108.07 607C1114.7 607 1120.07 612.373 1120.07 619H1134.07C1134.07 604.641 1122.43 593 1108.07 593V607ZM897.453 607H1108.07V593H897.453V607Z" fill="#967B67" mask="url(#path-3-outside-1_1_405)"/>
<ellipse cx="1060.77" cy="768.333" rx="13.2597" ry="8.33333" fill="#FFEA28"/>
<ellipse cx="1049.17" cy="766.667" rx="4.97238" ry="3.33333" fill="#FF8328"/>
<ellipse cx="1072.38" cy="781.667" rx="21.547" ry="11.6667" fill="#FFEA28"/>
<ellipse cx="1060.77" cy="765" rx="3.31492" ry="1.66667" fill="black"/>
<ellipse cx="841.989" cy="855" rx="13.2597" ry="8.33333" fill="#FFEA28"/>
<ellipse cx="830.387" cy="853.333" rx="4.97238" ry="3.33333" fill="#FF8328"/>
<ellipse cx="853.591" cy="868.333" rx="21.547" ry="11.6667" fill="#FFEA28"/>
<ellipse cx="841.989" cy="851.667" rx="3.31492" ry="1.66667" fill="black"/>
<ellipse cx="921.547" cy="768.333" rx="13.2597" ry="8.33333" fill="#FFEA28"/>
<ellipse cx="909.945" cy="766.667" rx="4.97238" ry="3.33333" fill="#FF8328"/>
<ellipse cx="933.149" cy="781.667" rx="21.547" ry="11.6667" fill="#FFEA28"/>
<ellipse cx="921.547" cy="765" rx="3.31492" ry="1.66667" fill="black"/>
<ellipse cx="967.956" cy="648.333" rx="13.2597" ry="8.33333" fill="#F5F5F5"/>
<ellipse cx="956.354" cy="646.667" rx="4.97238" ry="3.33333" fill="#FF8328"/>
<ellipse cx="979.558" cy="661.667" rx="21.547" ry="11.6667" fill="#F5F5F5"/>
<ellipse cx="967.956" cy="645" rx="3.31492" ry="1.66667" fill="black"/>
<ellipse cx="782.32" cy="981.667" rx="13.2597" ry="8.33333" fill="#F5F5F5"/>
<ellipse cx="770.718" cy="980" rx="4.97238" ry="3.33333" fill="#FF8328"/>
<ellipse cx="793.923" cy="995" rx="21.547" ry="11.6667" fill="#F5F5F5"/>
<ellipse cx="782.32" cy="978.333" rx="3.31492" ry="1.66667" fill="black"/>
<path d="M929.025 165.23H938.297L948.96 203.165H916.507L929.025 165.23Z" fill="#6C3535"/>
<path d="M929.952 46.6281L944.324 88.4876L963.796 125.551L892.399 118.574L910.943 95.0282L929.952 46.6281Z" fill="#0B550E"/>
<path d="M928.097 63.6335L947.106 109.853L973.066 150.623H883.129L902.598 119.446L928.097 63.6335Z" fill="#0B550E"/>
<path d="M928.097 108.981L985.914 179.619H870.281L928.097 108.981Z" fill="#0B550E"/>
<path d="M1067.23 271.809H1074.47L1082.79 309.744H1057.46L1067.23 271.809Z" fill="#6C3535"/>
<path d="M1067.95 153.207L1079.17 195.066L1094.37 232.129L1038.64 225.153L1053.12 201.607L1067.95 153.207Z" fill="#0B550E"/>
<path d="M1066.5 170.212L1081.34 216.432L1101.6 257.201H1031.41L1046.6 226.025L1066.5 170.212Z" fill="#0B550E"/>
<path d="M1066.5 215.56L1111.63 286.198H1021.38L1066.5 215.56Z" fill="#0B550E"/>
<path d="M1108.32 103.359H1119.4L1132.15 133.223H1093.36L1108.32 103.359Z" fill="#6C3535"/>
<path d="M1109.43 9.99173L1126.61 42.945L1149.88 72.1223L1064.55 66.6301L1086.71 48.0939L1109.43 9.99173Z" fill="#073D09"/>
<path d="M1107.21 23.379L1129.93 59.7649L1160.96 91.8599H1053.47L1076.74 67.3166L1107.21 23.379Z" fill="#073D09"/>
<path d="M1107.21 59.0783L1176.31 114.687H1038.11L1107.21 59.0783Z" fill="#073D09"/>
<path d="M987.825 120.012H998.907L1011.65 149.876H972.865L987.825 120.012Z" fill="#6C3535"/>
<path d="M988.933 26.6446L1006.11 59.5979L1029.38 88.7752L944.053 83.283L966.216 64.7468L988.933 26.6446Z" fill="#073D09"/>
<path d="M986.717 40.0319L1009.43 76.4177L1040.46 108.513H932.974L956.242 83.9695L986.717 40.0319Z" fill="#073D09"/>
<path d="M986.717 75.7312L1055.81 131.34H917.619L986.717 75.7312Z" fill="#073D09"/>
<path d="M1039.75 138.585H1049.02L1059.69 176.521H1027.23L1039.75 138.585Z" fill="#6C3535"/>
<path d="M1040.68 19.9835L1055.05 61.843L1074.52 98.9061L1003.12 91.9295L1021.67 68.3835L1040.68 19.9835Z" fill="#0B550E"/>
<path d="M1038.82 36.9889L1057.83 83.2088L1083.79 123.978H993.854L1013.32 92.8016L1038.82 36.9889Z" fill="#0B550E"/>
<path d="M1038.82 82.3367L1096.64 152.975H981.006L1038.82 82.3367Z" fill="#0B550E"/>
<path d="M929.025 165.23H938.297L948.96 203.165H916.507L929.025 165.23Z" fill="#6C3535"/>
<path d="M929.952 46.6281L944.324 88.4876L963.796 125.551L892.399 118.574L910.943 95.0282L929.952 46.6281Z" fill="#0B550E"/>
<path d="M928.097 63.6335L947.106 109.853L973.066 150.623H883.129L902.598 119.446L928.097 63.6335Z" fill="#0B550E"/>
<path d="M928.097 108.981L985.914 179.619H870.281L928.097 108.981Z" fill="#0B550E"/>
<path d="M997.414 228.511H1006.69L1017.35 266.446H984.896L997.414 228.511Z" fill="#6C3535"/>
<path d="M998.341 109.909L1012.71 151.769L1032.19 188.832L960.788 181.855L979.333 158.309L998.341 109.909Z" fill="#117615"/>
<path d="M996.487 126.915L1015.5 173.134L1041.46 213.904H951.518L970.988 182.727L996.487 126.915Z" fill="#117615"/>
<path d="M996.487 172.262L1054.3 242.9H938.67L996.487 172.262Z" fill="#117615"/>
<path d="M518.688 155.238H527.961L538.624 193.174H506.171L518.688 155.238Z" fill="#6C3535"/>
<path d="M519.616 36.6364L533.988 78.4959L553.46 115.559L482.062 108.582L500.607 85.0364L519.616 36.6364Z" fill="#0B550E"/>
<path d="M517.761 53.6418L536.769 99.8617L562.73 140.631H472.792L492.262 109.455L517.761 53.6418Z" fill="#0B550E"/>
<path d="M517.761 98.9896L575.578 169.628H459.944L517.761 98.9896Z" fill="#0B550E"/>
<path d="M710.83 198.536H720.102L730.766 236.471H698.312L710.83 198.536Z" fill="#6C3535"/>
<path d="M711.757 79.9339L726.129 121.793L745.601 158.857L674.204 151.88L692.749 128.334L711.757 79.9339Z" fill="#0B550E"/>
<path d="M709.903 96.9393L728.911 143.159L754.871 183.929H664.934L684.404 152.752L709.903 96.9393Z" fill="#0B550E"/>
<path d="M709.903 142.287L767.719 212.925H652.086L709.903 142.287Z" fill="#0B550E"/>
<path d="M880.175 258.486H889.447L900.111 296.421H867.657L880.175 258.486Z" fill="#6C3535"/>
<path d="M881.102 139.884L895.474 181.744L914.946 218.807L843.549 211.83L862.094 188.284L881.102 139.884Z" fill="#0B550E"/>
<path d="M879.248 156.89L898.256 203.11L924.216 243.879H834.279L853.749 212.702L879.248 156.89Z" fill="#0B550E"/>
<path d="M879.248 202.238L937.065 272.875H821.431L879.248 202.238Z" fill="#0B550E"/>
<path d="M656.892 261.817H664.129L672.451 299.752H647.122L656.892 261.817Z" fill="#6C3535"/>
<path d="M657.616 143.215L668.833 185.074L684.031 222.138L628.306 215.161L642.78 191.615L657.616 143.215Z" fill="#0B550E"/>
<path d="M656.168 160.22L671.004 206.44L691.266 247.21H621.071L636.267 216.033L656.168 160.22Z" fill="#0B550E"/>
<path d="M656.168 205.568L701.293 276.206H611.043L656.168 205.568Z" fill="#0B550E"/>
<path d="M849.033 305.114H856.27L864.593 343.05H839.264L849.033 305.114Z" fill="#6C3535"/>
<path d="M849.757 186.512L860.974 228.372L876.172 265.435L820.447 258.458L834.921 234.912L849.757 186.512Z" fill="#0B550E"/>
<path d="M848.31 203.518L863.146 249.738L883.407 290.507H813.212L828.408 259.331L848.31 203.518Z" fill="#0B550E"/>
<path d="M848.31 248.866L893.435 319.504H803.184L848.31 248.866Z" fill="#0B550E"/>
<path d="M1018.38 365.065H1025.62L1033.94 403H1008.61L1018.38 365.065Z" fill="#6C3535"/>
<path d="M1019.1 246.463L1030.32 288.322L1045.52 325.385L989.792 318.409L1004.27 294.863L1019.1 246.463Z" fill="#0B550E"/>
<path d="M1017.65 263.468L1032.49 309.688L1052.75 350.458H982.557L997.753 319.281L1017.65 263.468Z" fill="#0B550E"/>
<path d="M1017.65 308.816L1062.78 379.454H972.53L1017.65 308.816Z" fill="#0B550E"/>
<path d="M697.984 93.3675H709.066L721.81 123.231H683.024L697.984 93.3675Z" fill="#6C3535"/>
<path d="M699.092 0L716.269 32.9532L739.54 62.1306L654.212 56.6384L676.375 38.1022L699.092 0Z" fill="#073D09"/>
<path d="M696.876 13.3873L719.593 49.7731L750.619 81.8682H643.133L666.402 57.3249L696.876 13.3873Z" fill="#073D09"/>
<path d="M696.876 49.0866L765.974 104.695H627.778L696.876 49.0866Z" fill="#073D09"/>
<path d="M890.126 136.665H901.207L913.951 166.529H875.166L890.126 136.665Z" fill="#6C3535"/>
<path d="M891.234 43.2975L908.411 76.2508L931.682 105.428L846.354 99.9359L868.517 81.3997L891.234 43.2975Z" fill="#073D09"/>
<path d="M889.018 56.6848L911.735 93.0707L942.761 125.166H835.275L858.543 100.622L889.018 56.6848Z" fill="#073D09"/>
<path d="M889.018 92.3841L958.116 147.993H819.92L889.018 92.3841Z" fill="#073D09"/>
<path d="M1059.47 196.615H1070.55L1083.3 226.479H1044.51L1059.47 196.615Z" fill="#6C3535"/>
<path d="M1060.58 103.248L1077.76 136.201L1101.03 165.379L1015.7 159.886L1037.86 141.35L1060.58 103.248Z" fill="#073D09"/>
<path d="M1058.36 116.635L1081.08 153.021L1112.11 185.116H1004.62L1027.89 160.573L1058.36 116.635Z" fill="#073D09"/>
<path d="M1058.36 152.335L1127.46 207.943H989.265L1058.36 152.335Z" fill="#073D09"/>
<path d="M577.489 110.02H588.57L601.314 139.884H562.528L577.489 110.02Z" fill="#6C3535"/>
<path d="M578.597 16.6529L595.773 49.6061L619.045 78.7835L533.716 73.2913L555.88 54.7551L578.597 16.6529Z" fill="#073D09"/>
<path d="M576.381 30.0401L599.098 66.426L630.123 98.5211H522.638L545.906 73.9778L576.381 30.0401Z" fill="#073D09"/>
<path d="M576.381 65.7395L645.479 121.348H507.282L576.381 65.7395Z" fill="#073D09"/>
<path d="M769.63 153.318H780.712L793.456 183.182H754.67L769.63 153.318Z" fill="#6C3535"/>
<path d="M770.738 59.9504L787.915 92.9037L811.186 122.081L725.858 116.589L748.021 98.0526L770.738 59.9504Z" fill="#073D09"/>
<path d="M768.522 73.3377L791.239 109.724L822.265 141.819H714.779L738.048 117.275L768.522 73.3377Z" fill="#073D09"/>
<path d="M768.522 109.037L837.62 164.646H699.424L768.522 109.037Z" fill="#073D09"/>
<path d="M938.975 213.268H950.057L962.801 243.132H924.015L938.975 213.268Z" fill="#6C3535"/>
<path d="M940.084 119.901L957.26 152.854L980.531 182.031L895.203 176.539L917.366 158.003L940.084 119.901Z" fill="#073D09"/>
<path d="M937.867 133.288L960.585 169.674L991.61 201.769H884.124L907.393 177.226L937.867 133.288Z" fill="#073D09"/>
<path d="M937.867 168.987L1006.97 224.596H868.769L937.867 168.987Z" fill="#073D09"/>
<path d="M629.414 128.594H638.686L649.35 166.529H616.896L629.414 128.594Z" fill="#6C3535"/>
<path d="M630.341 9.99173L644.713 51.8513L664.185 88.9144L592.788 81.9378L611.333 58.3918L630.341 9.99173Z" fill="#0B550E"/>
<path d="M628.487 26.9972L647.495 73.2171L673.455 113.987H583.518L602.988 82.8099L628.487 26.9972Z" fill="#0B550E"/>
<path d="M628.487 72.345L686.304 142.983H570.67L628.487 72.345Z" fill="#0B550E"/>
<path d="M821.555 171.891H830.828L841.491 209.826H809.038L821.555 171.891Z" fill="#6C3535"/>
<path d="M822.483 53.2893L836.855 95.1488L856.327 132.212L784.93 125.235L803.474 101.689L822.483 53.2893Z" fill="#0B550E"/>
<path d="M820.628 70.2947L839.637 116.515L865.597 157.284H775.66L795.129 126.107L820.628 70.2947Z" fill="#0B550E"/>
<path d="M820.628 115.643L878.445 186.28H762.811L820.628 115.643Z" fill="#0B550E"/>
<path d="M990.901 231.842H1000.17L1010.84 269.777H978.383L990.901 231.842Z" fill="#6C3535"/>
<path d="M991.828 113.24L1006.2 155.099L1025.67 192.162L954.275 185.186L972.82 161.64L991.828 113.24Z" fill="#0B550E"/>
<path d="M989.973 130.245L1008.98 176.465L1034.94 217.234H945.005L964.474 186.058L989.973 130.245Z" fill="#0B550E"/>
<path d="M989.973 175.593L1047.79 246.231H932.157L989.973 175.593Z" fill="#0B550E"/>
<path d="M518.688 155.238H527.961L538.624 193.174H506.171L518.688 155.238Z" fill="#6C3535"/>
<path d="M519.616 36.6364L533.988 78.4959L553.46 115.559L482.062 108.582L500.607 85.0364L519.616 36.6364Z" fill="#0B550E"/>
<path d="M517.761 53.6418L536.769 99.8617L562.73 140.631H472.792L492.262 109.455L517.761 53.6418Z" fill="#0B550E"/>
<path d="M517.761 98.9896L575.578 169.628H459.944L517.761 98.9896Z" fill="#0B550E"/>
<path d="M710.83 198.536H720.102L730.766 236.471H698.312L710.83 198.536Z" fill="#6C3535"/>
<path d="M711.757 79.9339L726.129 121.793L745.601 158.857L674.204 151.88L692.749 128.334L711.757 79.9339Z" fill="#0B550E"/>
<path d="M709.903 96.9393L728.911 143.159L754.871 183.929H664.934L684.404 152.752L709.903 96.9393Z" fill="#0B550E"/>
<path d="M709.903 142.287L767.719 212.925H652.086L709.903 142.287Z" fill="#0B550E"/>
<path d="M880.175 258.486H889.447L900.111 296.421H867.657L880.175 258.486Z" fill="#6C3535"/>
<path d="M881.102 139.884L895.474 181.744L914.946 218.807L843.549 211.83L862.094 188.284L881.102 139.884Z" fill="#0B550E"/>
<path d="M879.248 156.89L898.256 203.11L924.216 243.879H834.279L853.749 212.702L879.248 156.89Z" fill="#0B550E"/>
<path d="M879.248 202.238L937.065 272.875H821.431L879.248 202.238Z" fill="#0B550E"/>
<path d="M587.078 218.519H596.35L607.013 256.455H574.56L587.078 218.519Z" fill="#6C3535"/>
<path d="M588.005 99.9174L602.377 141.777L621.849 178.84L550.452 171.863L568.997 148.317L588.005 99.9174Z" fill="#117615"/>
<path d="M586.15 116.923L605.159 163.143L631.119 203.912H541.182L560.651 172.736L586.15 116.923Z" fill="#117615"/>
<path d="M586.15 162.271L643.967 232.909H528.334L586.15 162.271Z" fill="#117615"/>
<path d="M779.219 261.817H788.492L799.155 299.752H766.702L779.219 261.817Z" fill="#6C3535"/>
<path d="M780.147 143.215L794.519 185.074L813.991 222.138L742.594 215.161L761.138 191.615L780.147 143.215Z" fill="#117615"/>
<path d="M778.292 160.22L797.3 206.44L823.261 247.21H733.323L752.793 216.033L778.292 160.22Z" fill="#117615"/>
<path d="M778.292 205.568L836.109 276.206H720.475L778.292 205.568Z" fill="#117615"/>
<path d="M948.564 321.767H957.837L968.5 359.702H936.047L948.564 321.767Z" fill="#6C3535"/>
<path d="M949.492 203.165L963.864 245.025L983.336 282.088L911.939 275.111L930.483 251.565L949.492 203.165Z" fill="#117615"/>
<path d="M947.637 220.171L966.646 266.391L992.606 307.16H902.669L922.138 275.983L947.637 220.171Z" fill="#117615"/>
<path d="M947.637 265.519L1005.45 336.156H889.82L947.637 265.519Z" fill="#117615"/>
<path d="M115.12 1031.77H121.183L124.378 1123.33H98.7627L115.12 1031.77Z" fill="#6C3535"/>
<ellipse cx="117.392" cy="1077.55" rx="25.1495" ry="24.8523" fill="#2E6830"/>
<ellipse cx="111.337" cy="1077.55" rx="25.1495" ry="24.8523" fill="#1AB420"/>
<ellipse cx="111.337" cy="1077.55" rx="25.1495" ry="24.8523" fill="#1AB420"/>
<ellipse cx="113.433" cy="1052.05" rx="19.3279" ry="32.0464" fill="#1AB420"/>
<ellipse cx="124.145" cy="1059.24" rx="15.602" ry="24.8523" fill="#2E6830"/>
<ellipse cx="11.1356" cy="10.5156" rx="11.1356" ry="10.5156" transform="matrix(0.776121 -0.630584 0.102463 0.994737 96.434 1034.04)" fill="#76EE7B"/>
<path d="M333.904 995.106H339.968L343.163 1086.67H317.547L333.904 995.106Z" fill="#6C3535"/>
<ellipse cx="336.177" cy="1040.89" rx="25.1495" ry="24.8523" fill="#2E6830"/>
<ellipse cx="330.122" cy="1040.89" rx="25.1495" ry="24.8523" fill="#1AB420"/>
<ellipse cx="330.122" cy="1040.89" rx="25.1495" ry="24.8523" fill="#1AB420"/>
<ellipse cx="332.218" cy="1015.38" rx="19.3279" ry="32.0464" fill="#1AB420"/>
<ellipse cx="342.93" cy="1022.57" rx="15.602" ry="24.8523" fill="#2E6830"/>
<ellipse cx="11.1356" cy="10.5156" rx="11.1356" ry="10.5156" transform="matrix(0.776121 -0.630584 0.102463 0.994737 315.219 997.377)" fill="#76EE7B"/>
<path d="M199.694 948.439H206.115L209.497 1040H182.375L199.694 948.439Z" fill="#6C3535"/>
<ellipse cx="202.1" cy="994.219" rx="26.6289" ry="24.8523" fill="#2E6830"/>
<ellipse cx="195.69" cy="994.219" rx="26.6289" ry="24.8523" fill="#1AB420"/>
<ellipse cx="195.69" cy="994.219" rx="26.6289" ry="24.8523" fill="#1AB420"/>
<ellipse cx="197.909" cy="968.713" rx="20.4648" ry="32.0464" fill="#1AB420"/>
<ellipse cx="209.251" cy="975.907" rx="16.5198" ry="24.8523" fill="#2E6830"/>
<ellipse cx="11.5346" cy="10.5223" rx="11.5346" ry="10.5223" transform="matrix(0.793347 -0.60877 0.108421 0.994105 179.91 950.711)" fill="#76EE7B"/>
<path d="M217.882 1028.44H223.945L227.14 1120H201.525L217.882 1028.44Z" fill="#6C3535"/>
<ellipse cx="220.154" cy="1074.22" rx="25.1495" ry="24.8523" fill="#2E6830"/>
<ellipse cx="214.1" cy="1074.22" rx="25.1495" ry="24.8523" fill="#1AB420"/>
<ellipse cx="214.1" cy="1074.22" rx="25.1495" ry="24.8523" fill="#1AB420"/>
<ellipse cx="216.196" cy="1048.71" rx="19.3279" ry="32.0464" fill="#1AB420"/>
<ellipse cx="226.907" cy="1055.91" rx="15.602" ry="24.8523" fill="#2E6830"/>
<ellipse cx="11.1356" cy="10.5156" rx="11.1356" ry="10.5156" transform="matrix(0.776121 -0.630584 0.102463 0.994737 199.196 1030.71)" fill="#76EE7B"/>
<path d="M91.9152 805.105H97.9787L101.173 896.667H75.5582L91.9152 805.105Z" fill="#6C3535"/>
<ellipse cx="94.1875" cy="850.886" rx="25.1495" ry="24.8523" fill="#2E6830"/>
<ellipse cx="88.1329" cy="850.886" rx="25.1495" ry="24.8523" fill="#1AB420"/>
<ellipse cx="88.1329" cy="850.886" rx="25.1495" ry="24.8523" fill="#1AB420"/>
<ellipse cx="90.2288" cy="825.38" rx="19.3279" ry="32.0464" fill="#1AB420"/>
<ellipse cx="100.941" cy="832.574" rx="15.602" ry="24.8523" fill="#2E6830"/>
<ellipse cx="11.1356" cy="10.5156" rx="11.1356" ry="10.5156" transform="matrix(0.776121 -0.630584 0.102463 0.994737 73.2295 807.377)" fill="#76EE7B"/>
<path d="M91.9152 805.105H97.9787L101.173 896.667H75.5582L91.9152 805.105Z" fill="#6C3535"/>
<ellipse cx="94.1875" cy="850.886" rx="25.1495" ry="24.8523" fill="#2E6830"/>
<ellipse cx="88.1329" cy="850.886" rx="25.1495" ry="24.8523" fill="#1AB420"/>
<ellipse cx="88.1329" cy="850.886" rx="25.1495" ry="24.8523" fill="#1AB420"/>
<ellipse cx="90.2288" cy="825.38" rx="19.3279" ry="32.0464" fill="#1AB420"/>
<ellipse cx="100.941" cy="832.574" rx="15.602" ry="24.8523" fill="#2E6830"/>
<ellipse cx="11.1356" cy="10.5156" rx="11.1356" ry="10.5156" transform="matrix(0.776121 -0.630584 0.102463 0.994737 73.2295 807.377)" fill="#76EE7B"/>
<path d="M257.661 738.439H263.725L266.919 830H241.304L257.661 738.439Z" fill="#6C3535"/>
<ellipse cx="259.933" cy="784.219" rx="25.1495" ry="24.8523" fill="#2E6830"/>
<ellipse cx="253.879" cy="784.219" rx="25.1495" ry="24.8523" fill="#1AB420"/>
<ellipse cx="253.879" cy="784.219" rx="25.1495" ry="24.8523" fill="#1AB420"/>
<ellipse cx="255.975" cy="758.713" rx="19.3279" ry="32.0464" fill="#1AB420"/>
<ellipse cx="266.686" cy="765.907" rx="15.602" ry="24.8523" fill="#2E6830"/>
<ellipse cx="11.1356" cy="10.5156" rx="11.1356" ry="10.5156" transform="matrix(0.776121 -0.630584 0.102463 0.994737 238.975 740.711)" fill="#76EE7B"/>
<path d="M123.451 691.772H129.871L133.254 783.333H106.132L123.451 691.772Z" fill="#6C3535"/>
<ellipse cx="125.857" cy="737.553" rx="26.6289" ry="24.8523" fill="#2E6830"/>
<ellipse cx="119.447" cy="737.553" rx="26.6289" ry="24.8523" fill="#1AB420"/>
<ellipse cx="119.447" cy="737.553" rx="26.6289" ry="24.8523" fill="#1AB420"/>
<ellipse cx="121.666" cy="712.046" rx="20.4648" ry="32.0464" fill="#1AB420"/>
<ellipse cx="133.008" cy="719.24" rx="16.5198" ry="24.8523" fill="#2E6830"/>
<ellipse cx="11.5346" cy="10.5223" rx="11.5346" ry="10.5223" transform="matrix(0.793347 -0.60877 0.108421 0.994105 103.667 694.044)" fill="#76EE7B"/>
<path d="M141.639 771.772H147.702L150.897 863.333H125.282L141.639 771.772Z" fill="#6C3535"/>
<ellipse cx="143.911" cy="817.553" rx="25.1495" ry="24.8523" fill="#2E6830"/>
<ellipse cx="137.857" cy="817.553" rx="25.1495" ry="24.8523" fill="#1AB420"/>
<ellipse cx="137.857" cy="817.553" rx="25.1495" ry="24.8523" fill="#1AB420"/>
<ellipse cx="139.953" cy="792.046" rx="19.3279" ry="32.0464" fill="#1AB420"/>
<ellipse cx="150.664" cy="799.24" rx="15.602" ry="24.8523" fill="#2E6830"/>
<ellipse cx="11.1356" cy="10.5156" rx="11.1356" ry="10.5156" transform="matrix(0.776121 -0.630584 0.102463 0.994737 122.953 774.044)" fill="#76EE7B"/>
<path d="M168.158 878.439H174.222L177.417 970H151.801L168.158 878.439Z" fill="#6C3535"/>
<ellipse cx="170.431" cy="924.219" rx="25.1495" ry="24.8523" fill="#2E6830"/>
<ellipse cx="164.376" cy="924.219" rx="25.1495" ry="24.8523" fill="#1AB420"/>
<ellipse cx="164.376" cy="924.219" rx="25.1495" ry="24.8523" fill="#1AB420"/>
<ellipse cx="166.472" cy="898.713" rx="19.3279" ry="32.0464" fill="#1AB420"/>
<ellipse cx="177.184" cy="905.907" rx="15.602" ry="24.8523" fill="#2E6830"/>
<ellipse cx="11.1356" cy="10.5156" rx="11.1356" ry="10.5156" transform="matrix(0.776121 -0.630584 0.102463 0.994737 149.473 880.711)" fill="#76EE7B"/>
<path d="M168.158 878.439H174.222L177.417 970H151.801L168.158 878.439Z" fill="#6C3535"/>
<ellipse cx="170.431" cy="924.219" rx="25.1495" ry="24.8523" fill="#2E6830"/>
<ellipse cx="164.376" cy="924.219" rx="25.1495" ry="24.8523" fill="#1AB420"/>
<ellipse cx="164.376" cy="924.219" rx="25.1495" ry="24.8523" fill="#1AB420"/>
<ellipse cx="166.472" cy="898.713" rx="19.3279" ry="32.0464" fill="#1AB420"/>
<ellipse cx="177.184" cy="905.907" rx="15.602" ry="24.8523" fill="#2E6830"/>
<ellipse cx="11.1356" cy="10.5156" rx="11.1356" ry="10.5156" transform="matrix(0.776121 -0.630584 0.102463 0.994737 149.473 880.711)" fill="#76EE7B"/>
<path d="M333.904 811.772H339.968L343.163 903.333H317.547L333.904 811.772Z" fill="#6C3535"/>
<ellipse cx="336.177" cy="857.553" rx="25.1495" ry="24.8523" fill="#2E6830"/>
<ellipse cx="330.122" cy="857.553" rx="25.1495" ry="24.8523" fill="#1AB420"/>
<ellipse cx="330.122" cy="857.553" rx="25.1495" ry="24.8523" fill="#1AB420"/>
<ellipse cx="332.218" cy="832.046" rx="19.3279" ry="32.0464" fill="#1AB420"/>
<ellipse cx="342.93" cy="839.24" rx="15.602" ry="24.8523" fill="#2E6830"/>
<ellipse cx="11.1356" cy="10.5156" rx="11.1356" ry="10.5156" transform="matrix(0.776121 -0.630584 0.102463 0.994737 315.219 814.044)" fill="#76EE7B"/>
<path d="M199.694 765.105H206.115L209.497 856.667H182.375L199.694 765.105Z" fill="#6C3535"/>
<ellipse cx="202.1" cy="810.886" rx="26.6289" ry="24.8523" fill="#2E6830"/>
<ellipse cx="195.69" cy="810.886" rx="26.6289" ry="24.8523" fill="#1AB420"/>
<ellipse cx="195.69" cy="810.886" rx="26.6289" ry="24.8523" fill="#1AB420"/>
<ellipse cx="197.909" cy="785.38" rx="20.4648" ry="32.0464" fill="#1AB420"/>
<ellipse cx="209.251" cy="792.574" rx="16.5198" ry="24.8523" fill="#2E6830"/>
<ellipse cx="11.5346" cy="10.5223" rx="11.5346" ry="10.5223" transform="matrix(0.793347 -0.60877 0.108421 0.994105 179.91 767.377)" fill="#76EE7B"/>
<path d="M217.882 845.106H223.945L227.14 936.667H201.525L217.882 845.106Z" fill="#6C3535"/>
<ellipse cx="220.154" cy="890.886" rx="25.1495" ry="24.8523" fill="#2E6830"/>
<ellipse cx="214.1" cy="890.886" rx="25.1495" ry="24.8523" fill="#1AB420"/>
<ellipse cx="214.1" cy="890.886" rx="25.1495" ry="24.8523" fill="#1AB420"/>
<ellipse cx="216.196" cy="865.38" rx="19.3279" ry="32.0464" fill="#1AB420"/>
<ellipse cx="226.907" cy="872.574" rx="15.602" ry="24.8523" fill="#2E6830"/>
<ellipse cx="11.1356" cy="10.5156" rx="11.1356" ry="10.5156" transform="matrix(0.776121 -0.630584 0.102463 0.994737 199.196 847.377)" fill="#76EE7B"/>
<path d="M463.186 858.439H469.249L472.444 950H446.829L463.186 858.439Z" fill="#6C3535"/>
<ellipse cx="465.458" cy="904.219" rx="25.1495" ry="24.8523" fill="#2E6830"/>
<ellipse cx="459.404" cy="904.219" rx="25.1495" ry="24.8523" fill="#1AB420"/>
<ellipse cx="459.404" cy="904.219" rx="25.1495" ry="24.8523" fill="#1AB420"/>
<ellipse cx="461.5" cy="878.713" rx="19.3279" ry="32.0464" fill="#1AB420"/>
<ellipse cx="472.211" cy="885.907" rx="15.602" ry="24.8523" fill="#2E6830"/>
<ellipse cx="11.1356" cy="10.5156" rx="11.1356" ry="10.5156" transform="matrix(0.776121 -0.630584 0.102463 0.994737 444.5 860.711)" fill="#76EE7B"/>
<path d="M101.86 208.439H107.923L111.118 300H85.5029L101.86 208.439Z" fill="#6C3535"/>
<ellipse cx="104.132" cy="254.219" rx="25.1495" ry="24.8523" fill="#2E6830"/>
<ellipse cx="98.0778" cy="254.219" rx="25.1495" ry="24.8523" fill="#1AB420"/>
<ellipse cx="98.0778" cy="254.219" rx="25.1495" ry="24.8523" fill="#1AB420"/>
<ellipse cx="100.174" cy="228.713" rx="19.3279" ry="32.0464" fill="#1AB420"/>
<ellipse cx="110.885" cy="235.907" rx="15.602" ry="24.8523" fill="#2E6830"/>
<ellipse cx="11.1356" cy="10.5156" rx="11.1356" ry="10.5156" transform="matrix(0.776121 -0.630584 0.102463 0.994737 83.1743 210.71)" fill="#76EE7B"/>
<path d="M101.86 208.439H107.923L111.118 300H85.5029L101.86 208.439Z" fill="#6C3535"/>
<ellipse cx="104.132" cy="254.219" rx="25.1495" ry="24.8523" fill="#2E6830"/>
<ellipse cx="98.0778" cy="254.219" rx="25.1495" ry="24.8523" fill="#1AB420"/>
<ellipse cx="98.0778" cy="254.219" rx="25.1495" ry="24.8523" fill="#1AB420"/>
<ellipse cx="100.174" cy="228.713" rx="19.3279" ry="32.0464" fill="#1AB420"/>
<ellipse cx="110.885" cy="235.907" rx="15.602" ry="24.8523" fill="#2E6830"/>
<ellipse cx="11.1356" cy="10.5156" rx="11.1356" ry="10.5156" transform="matrix(0.776121 -0.630584 0.102463 0.994737 83.1743 210.71)" fill="#76EE7B"/>
<path d="M267.606 141.772H273.669L276.864 233.333H251.249L267.606 141.772Z" fill="#6C3535"/>
<ellipse cx="269.878" cy="187.553" rx="25.1495" ry="24.8523" fill="#2E6830"/>
<ellipse cx="263.824" cy="187.553" rx="25.1495" ry="24.8523" fill="#1AB420"/>
<ellipse cx="263.824" cy="187.553" rx="25.1495" ry="24.8523" fill="#1AB420"/>
<ellipse cx="265.919" cy="162.046" rx="19.3279" ry="32.0464" fill="#1AB420"/>
<ellipse cx="276.631" cy="169.241" rx="15.602" ry="24.8523" fill="#2E6830"/>
<ellipse cx="11.1356" cy="10.5156" rx="11.1356" ry="10.5156" transform="matrix(0.776121 -0.630584 0.102463 0.994737 248.92 144.044)" fill="#76EE7B"/>
<path d="M133.396 95.1055H139.816L143.199 186.667H116.077L133.396 95.1055Z" fill="#6C3535"/>
<ellipse cx="135.802" cy="140.886" rx="26.6289" ry="24.8523" fill="#2E6830"/>
<ellipse cx="129.391" cy="140.886" rx="26.6289" ry="24.8523" fill="#1AB420"/>
<ellipse cx="129.391" cy="140.886" rx="26.6289" ry="24.8523" fill="#1AB420"/>
<ellipse cx="131.61" cy="115.38" rx="20.4648" ry="32.0464" fill="#1AB420"/>
<ellipse cx="142.952" cy="122.574" rx="16.5198" ry="24.8523" fill="#2E6830"/>
<ellipse cx="11.5346" cy="10.5223" rx="11.5346" ry="10.5223" transform="matrix(0.793347 -0.60877 0.108421 0.994105 113.611 97.3772)" fill="#76EE7B"/>
<path d="M151.584 175.105H157.647L160.842 266.667H135.227L151.584 175.105Z" fill="#6C3535"/>
<ellipse cx="153.856" cy="220.886" rx="25.1495" ry="24.8523" fill="#2E6830"/>
<ellipse cx="147.802" cy="220.886" rx="25.1495" ry="24.8523" fill="#1AB420"/>
<ellipse cx="147.802" cy="220.886" rx="25.1495" ry="24.8523" fill="#1AB420"/>
<ellipse cx="149.897" cy="195.38" rx="19.3279" ry="32.0464" fill="#1AB420"/>
<ellipse cx="160.609" cy="202.574" rx="15.602" ry="24.8523" fill="#2E6830"/>
<ellipse cx="11.1356" cy="10.5156" rx="11.1356" ry="10.5156" transform="matrix(0.776121 -0.630584 0.102463 0.994737 132.898 177.377)" fill="#76EE7B"/>
<path d="M600 1200V0.000900269" stroke="#808080" stroke-width="0.5" stroke-dasharray="4 4"/>
<path d="M1.87549 1200V0.00184631" stroke="#808080" stroke-width="0.5" stroke-dasharray="4 4"/>
<path d="M121.5 1200V0.00184631" stroke="#808080" stroke-width="0.5" stroke-dasharray="4 4"/>
<path d="M241.125 1200V0.00184631" stroke="#808080" stroke-width="0.5" stroke-dasharray="4 4"/>
<path d="M360.75 1200V0.00184631" stroke="#808080" stroke-width="0.5" stroke-dasharray="4 4"/>
<path d="M480.375 1200V0" stroke="#808080" stroke-width="0.5" stroke-dasharray="4 4"/>
<path d="M719.625 1200V0" stroke="#808080" stroke-width="0.5" stroke-dasharray="4 4"/>
<path d="M839.25 1200V0.00140381" stroke="#808080" stroke-width="0.5" stroke-dasharray="4 4"/>
<path d="M958.875 1200V0.00140381" stroke="#808080" stroke-width="0.5" stroke-dasharray="4 4"/>
<path d="M1078.5 1200V0.00140381" stroke="#808080" stroke-width="0.5" stroke-dasharray="4 4"/>
<path d="M1198.12 1200V0.00140381" stroke="#808080" stroke-width="0.5" stroke-dasharray="4 4"/>
<path d="M1200 600H0.000732422" stroke="#808080" stroke-width="0.5" stroke-dasharray="4 4"/>
<path d="M1200 1198.12H0.000244141" stroke="#808080" stroke-width="0.5" stroke-dasharray="4 4"/>
<path d="M1200 1078.5H0.000244141" stroke="#808080" stroke-width="0.5" stroke-dasharray="4 4"/>
<path d="M1200 958.875H0.000244141" stroke="#808080" stroke-width="0.5" stroke-dasharray="4 4"/>
<path d="M1200 839.25H0.000244141" stroke="#808080" stroke-width="0.5" stroke-dasharray="4 4"/>
<path d="M1200 719.625H0.000244141" stroke="#808080" stroke-width="0.5" stroke-dasharray="4 4"/>
<path d="M1200 480.376H0.000244141" stroke="#808080" stroke-width="0.5" stroke-dasharray="4 4"/>
<path d="M1200 360.752H0.000244141" stroke="#808080" stroke-width="0.5" stroke-dasharray="4 4"/>
<path d="M1200 241.126H0.000244141" stroke="#808080" stroke-width="0.5" stroke-dasharray="4 4"/>
<path d="M1200 121.502H0.000244141" stroke="#808080" stroke-width="0.5" stroke-dasharray="4 4"/>
<path d="M1200 1.8768H0" stroke="#808080" stroke-width="0.5" stroke-dasharray="4 4"/>
</g>
<defs>
<clipPath id="clip0_1_405">
<rect width="1200" height="1200" fill="white"/>
</clipPath>
</defs>
</svg>
