<svg width="120" height="120" viewBox="0 0 120 120" fill="none" xmlns="http://www.w3.org/2000/svg">
<circle cx="30" cy="30" r="27" fill="#EBE7C6" stroke="#4F4CE8" stroke-width="6"/>
<circle cx="30" cy="30" r="3" fill="#D9D9D9" stroke="#4F4CE8" stroke-width="4"/>
<circle cx="55" cy="55" r="3" fill="#D9D9D9" stroke="#4F4CE8" stroke-width="4"/>
<circle cx="90" cy="30" r="27" fill="#EBE7C6" stroke="#4F4CE8" stroke-width="6"/>
<circle cx="90" cy="90" r="27" fill="#EBE7C6" stroke="#4F4CE8" stroke-width="6"/>
<circle cx="30" cy="90" r="27" fill="#EBE7C6" stroke="#4F4CE8" stroke-width="6"/>
<rect x="30" y="30" width="60" height="60" rx="14" fill="#4F4CE8"/>
<rect x="46" y="30" width="28" height="9" fill="#25235B"/>
<rect x="46" y="30" width="28" height="9" fill="#25235B"/>
<rect x="46" y="40" width="28" height="9" fill="#25235B"/>
<rect x="46" y="40" width="28" height="9" fill="#25235B"/>
<rect x="46" y="50" width="28" height="9" fill="#25235B"/>
<rect x="46" y="50" width="28" height="9" fill="#25235B"/>
<rect x="54" y="50" width="12" height="9" fill="#25235B"/>
<rect x="54" y="50" width="12" height="9" fill="#F9185B"/>
<rect x="54" y="30" width="12" height="9" fill="#25235B"/>
<rect x="54" y="30" width="12" height="9" fill="#F9185B"/>
<circle cx="90" cy="30" r="3" fill="#D9D9D9" stroke="#4F4CE8" stroke-width="4"/>
<circle cx="90" cy="90" r="3" fill="#D9D9D9" stroke="#4F4CE8" stroke-width="4"/>
<circle cx="30" cy="90" r="3" fill="#D9D9D9" stroke="#4F4CE8" stroke-width="4"/>
</svg>
